<svg xmlns="http://www.w3.org/2000/svg" viewBox="0 0 64 64" role="img" aria-label="ROJ">
  <rect width="64" height="64" rx="14" fill="#0f766e"/>
  <g transform="translate(10 50) scale(1.15 -1.15)" fill="#fff">
    <path d="M1.96875 34.21875 6.28125 33.84375C6.390625 28.890625 6.390625 23.953125 6.390625 18.953125v-2.109375c0-4.984375 0-9.9375-.109375-14.78125l-4.3125-.4375V0H18.953125v1.625l-4.40625.4375c-.140625 4.890625-.140625 9.84375-.140625 14.875h2.296875c3.703125 0 4.84375-1.90625 5.515625-5.84375l1.390625-6.625C24.09375.578125 26.546875-.71875 30.953125-.71875c2.40625 0 3.75.234375 5.71875.71875v1.625l-4.265625.296875-1.5 7.875c-.8125 4.75-2.53125 7.4375-8.828125 8.25 7.578125 1.15625 10.21875 4.84375 10.21875 8.78125 0 5.71875-4.59375 9.03125-13 9.03125H1.96875Zm12.578125-1.828125h2.6875c4.84375 0 7.390625-2.59375 7.390625-7.34375 0-4.375-2.0625-7.96875-7.4375-7.96875h-2.78125c0 5.515625 0 10.46875.140625 15.3125Z"/>
  </g>
  <path d="M44 40l7 6-7 6" fill="none" stroke="#facc15" stroke-width="4.5" stroke-linecap="round" stroke-linejoin="round"/>
</svg>
